# xmcd
#
# Track frame offsets:
#	187
#	11912
#	28885
#	40857
#	55022
#	66172
#	77572
#	89345
#	109112
#	124242
#	136100
#	148345
#	159912
#	172637
#	183357
#	198175
#
# Disc length: 2795 seconds
#
# Revision: 3
# Processed by: cddbd v1.5.2PL0 Copyright (c) Steve Scherf et al.
# Submitted via: audiograbber 1.83.01
#
DISCID=d00ae910
DTITLE=Various Artist - 16 By Four: Cash, Robbins, Price and Horton
DYEAR=1900
DGENRE=
TTITLE0=Johnny Cash - I Walk The Line
TTITLE1=Johnny Cash - A Boy Named Sue
TTITLE2=Johnny Cash - Ring Of Fire
TTITLE3=Johnny Cash - Orange Blossom Special
TTITLE4=Marty Robbins - Swinging The Blues
TTITLE5=Marty Robbins - A White Sports Coat (And A Pink Carnation)
TTITLE6=Marty Robbins - Love SIck Blues
TTITLE7=Marty Robbins - El Paso
TTITLE8=Ray Price - San Antonio Rose
TTITLE9=Ray Price - Heartaches By The Number
TTITLE10=Ray Price - Release Me
TTITLE11=Ray Price - Make The World Go Away
TTITLE12=Johnny Horton - North To Alaska
TTITLE13=Johnny Horton - Johnny Reb
TTITLE14=Johnny Horton - Sink The Bismark
TTITLE15=Johnny Horton - The Battle Of New Orleans
EXTD=
EXTT0=
EXTT1=
EXTT2=
EXTT3=
EXTT4=
EXTT5=
EXTT6=
EXTT7=
EXTT8=
EXTT9=
EXTT10=
EXTT11=
EXTT12=
EXTT13=
EXTT14=
EXTT15=
PLAYORDER=
